<svg width="48" height="48" viewBox="0 0 48 48" fill="none" xmlns="http://www.w3.org/2000/svg">
<path d="M8 12L20.216 21.224L20.22 21.228C21.576 22.222 22.254 22.72 22.998 22.912C23.6552 23.082 24.3448 23.082 25.002 22.912C25.746 22.72 26.426 22.222 27.786 21.224C27.786 21.224 35.62 15.212 40 12M6 31.6V16.4C6 14.16 6 13.04 6.436 12.184C6.82 11.43 7.43 10.82 8.184 10.436C9.04 10 10.16 10 12.4 10H35.6C37.84 10 38.96 10 39.814 10.436C40.568 10.82 41.18 11.43 41.564 12.184C42 13.038 42 14.158 42 16.394V31.608C42 33.844 42 34.96 41.564 35.816C41.1798 36.5688 40.5672 37.1806 39.814 37.564C38.96 38 37.842 38 35.606 38H12.394C10.158 38 9.038 38 8.184 37.564C7.43139 37.1805 6.81949 36.5686 6.436 35.816C6 34.96 6 33.84 6 31.6Z" stroke="#40291B" stroke-width="2" stroke-linecap="round" stroke-linejoin="round"/>
</svg>
