<svg width="48" height="48" viewBox="0 0 48 48" fill="none" xmlns="http://www.w3.org/2000/svg">
<path d="M24.0796 4C13.1596 4 4.25961 12.9 4.25961 23.82C4.25961 27.32 5.17961 30.72 6.89961 33.72L4.09961 44L14.5996 41.24C17.4996 42.82 20.7596 43.66 24.0796 43.66C34.9996 43.66 43.8996 34.76 43.8996 23.84C43.8996 18.54 41.8396 13.56 38.0996 9.82C36.266 7.96785 34.082 6.49933 31.6749 5.5001C29.2678 4.50087 26.6858 3.99092 24.0796 4ZM24.0996 7.34C28.4996 7.34 32.6196 9.06 35.7396 12.18C37.2708 13.7107 38.4848 15.5286 39.3119 17.5295C40.1391 19.5304 40.5631 21.6749 40.5596 23.84C40.5596 32.92 33.1596 40.3 24.0796 40.3C21.1196 40.3 18.2196 39.52 15.6996 38L15.0996 37.66L8.85961 39.3L10.5196 33.22L10.1196 32.58C8.46749 29.9573 7.59363 26.9196 7.59961 23.82C7.61961 14.74 14.9996 7.34 24.0996 7.34ZM17.0596 14.66C16.7396 14.66 16.1996 14.78 15.7396 15.28C15.2996 15.78 13.9996 17 13.9996 19.42C13.9996 21.86 15.7796 24.2 15.9996 24.54C16.2796 24.88 19.5196 29.88 24.4996 32C25.6796 32.54 26.5996 32.84 27.3196 33.06C28.4996 33.44 29.5796 33.38 30.4396 33.26C31.3996 33.12 33.3596 32.06 33.7796 30.9C34.1996 29.74 34.1996 28.76 34.0796 28.54C33.9396 28.34 33.6196 28.22 33.1196 28C32.6196 27.72 30.1796 26.52 29.7396 26.36C29.2796 26.2 28.9996 26.12 28.6196 26.6C28.2996 27.1 27.3396 28.22 27.0596 28.54C26.7596 28.88 26.4796 28.92 25.9996 28.68C25.4796 28.42 23.8796 27.9 21.9996 26.22C20.5196 24.9 19.5396 23.28 19.2396 22.78C18.9996 22.3 19.2196 22 19.4596 21.78C19.6796 21.56 19.9996 21.2 20.1996 20.9C20.4596 20.62 20.5396 20.4 20.6996 20.08C20.8596 19.74 20.7796 19.46 20.6596 19.22C20.5396 19 19.5396 16.52 19.1196 15.54C18.7196 14.58 18.3196 14.7 17.9996 14.68C17.7196 14.68 17.3996 14.66 17.0596 14.66Z" fill="#40291B"/>
</svg>
